<svg width="591" height="560" viewBox="0 0 591 560" fill="none" xmlns="http://www.w3.org/2000/svg">
<path d="M228.545 371.578C228.545 371.578 194.059 391.293 216.536 453.141C236.498 508.068 164.947 515.531 137.128 503.958C101.092 488.966 89.2106 437.135 57.4446 446.317C25.6786 455.498 11.1258 381.588 57.985 365.033C116.276 344.439 86.6369 319.526 95.9607 297.616C102.653 281.891 155.464 266.233 175.256 300.405C191.91 329.161 204.286 322.609 214.828 321.373C230.033 319.589 256.167 350.315 228.545 371.578Z" fill="#DEE9FF"/>
<path d="M139.675 367.35C139.675 367.35 85.2285 428.508 84.5993 435.29C84.5993 435.29 87.0587 436.379 89.8017 439.559C92.9769 443.239 96.7821 444.644 98.6875 443.607C101.433 442.115 101.197 440.06 101.197 440.06L143.218 455.282C143.218 455.282 158.058 450.629 188.153 419.258L196.158 407.82L139.675 367.35Z" fill="#0F95D8"/>
<path d="M77.2818 376.184C77.2818 376.184 83.983 380.992 91.9917 376.46L117.18 362.003C117.18 362.003 125.756 355.673 134.576 361.762C134.576 361.762 126.563 381.226 143.071 384.557C143.071 384.557 159.183 391.94 167.708 399.52C171.994 403.334 181.162 409.802 185.521 413.454C186.69 414.433 189.084 415.897 190.298 417.364C191.984 419.401 195.206 423.844 190.036 428.154C190.036 428.154 186.59 432.201 179.686 427.941C173.27 423.982 162.084 414.797 155.303 410.525C154.935 410.294 153.255 409.951 155.599 412.237C158.49 415.056 171.993 425.037 171.993 425.037C171.993 425.037 177.043 428.544 178.243 430.324C179.297 431.885 180.92 435.314 177.899 439.038C177.899 439.038 173.61 444.692 166.256 440.199L149.372 428.413C149.372 428.413 145.782 426.095 148.669 429.478C148.669 429.478 165.804 441.517 166.478 443.349C168.398 448.571 164.681 455.288 156.331 452.045L136.986 441.468C136.986 441.468 135.218 441.209 136.665 442.62C136.665 442.62 154.614 451.883 155.858 452.9C157.484 454.231 153.535 460.505 145.353 457.992C133.682 454.409 110.093 447.96 98.6868 443.607C94.6735 442.076 86.4295 437.985 83.2521 436.063C83.2521 436.063 70.5065 428.042 53.0531 427.708L65.6275 374.112L77.2818 376.184Z" fill="#699CFF"/>
<path d="M96.7778 447.22C96.7778 447.22 100.463 442.351 102.742 440.59C107.364 437.018 115.704 440.48 116.109 444.856C116.109 444.856 117.907 449.157 110.451 455.5C109.072 456.672 104.693 459.457 98.2882 454.194C98.2881 454.194 94.4672 450.68 96.7778 447.22Z" fill="#0F95D8"/>
<path d="M104.164 403.943C104.164 403.943 114.843 412.4 125.899 387.239C125.899 387.239 131.781 389.289 140.919 383.989L142.823 381.028C142.823 381.028 124.263 383.004 124.345 383.369C124.427 383.734 104.164 403.943 104.164 403.943Z" fill="#0F95D8"/>
<path d="M112.659 456.742C112.527 453.513 117.054 447.589 119.035 445.498C121.369 443.034 130.562 440.679 131.63 450.464C131.63 450.464 131.06 457.322 125.954 461.232C123.526 463.092 112.937 463.587 112.659 456.742Z" fill="#0F95D8"/>
<path d="M133.263 451.858C134.827 449.37 142.582 448.183 142.755 455.328C142.82 458.034 141.411 462.494 137.393 464.261C134.472 465.546 126.762 463.455 128.228 460.322C129.234 458.168 129.727 457.48 133.263 451.858Z" fill="#0F95D8"/>
<path d="M83.0759 440.84C83.7497 439.359 84.8632 437.939 87.0865 436.147C88.4318 435.064 92.2118 434.644 94.4849 436.063C96.1165 437.083 99.3328 439.472 98.612 441.597C97.2407 445.635 94.916 451.106 89.8829 449.525C89.8826 449.525 80.0718 447.443 83.0759 440.84Z" fill="#0F95D8"/>
<path d="M75.2719 370.91L64.9994 437.69L32.0142 431.342L46.6328 363.313L75.2719 370.91Z" fill="#3EC25A"/>
<path d="M86.7083 438.59C86.7083 438.59 85.0956 443.165 87.959 445.088C87.959 445.088 91.6438 449.51 96.205 442.205C96.9651 440.988 95.2656 438.84 92.2552 438.036C92.2553 438.036 89.4033 436.938 86.7083 438.59Z" fill="#D4E5FF"/>
<path d="M101.305 446.818C101.305 446.818 103.183 442.615 104.777 441.97C106.42 441.305 111.353 441.198 113.426 446.044C113.783 446.877 112.495 448.618 111.915 449.54C110.847 451.244 108.089 453.793 104.882 452.042C104.882 452.042 100.779 450.561 101.305 446.818Z" fill="#D4E5FF"/>
<path d="M118.093 450.414C118.538 449.194 120.267 446.969 121.84 446.812C124.429 446.554 130.406 448.474 128.826 452.301C128.826 452.301 127.47 455.546 124.56 456.302C124.56 456.302 119.513 458.112 117.647 453.415C117.366 452.71 117.834 451.127 118.093 450.414Z" fill="#D4E5FF"/>
<path d="M131.797 457.753C132.542 459.612 135.738 461.533 137.689 459.762C138.48 459.045 140.109 456.645 140.198 455.582C140.348 453.784 136.809 449.987 133.709 453.523C132.977 454.357 131.384 456.723 131.797 457.753Z" fill="#D4E5FF"/>
<path d="M146.971 360.028C146.971 360.028 136.178 356.624 127.922 364.913L114.084 373.386C114.084 373.386 108.182 375.343 106.356 383.24L100.07 396.31C100.07 396.31 94.9916 405.278 109.802 404.05C109.802 404.05 118.278 400.467 125.009 386.856L124.961 385.118C124.961 385.118 125.92 387.262 130.812 386.401C130.812 386.401 135.864 384.653 142.851 382.339C142.851 382.339 143.985 383.719 150.697 387.405C150.697 387.405 167.107 395.991 170.922 400.569L190.582 415.532C190.582 415.532 193.634 414.313 201.228 402.503L218.172 396.48L200.396 347.982C200.396 347.982 173.331 358.581 165.384 359.374L146.971 360.028Z" fill="#0F95D8"/>
<path d="M188.568 349.162L211.983 404.283L236.9 394.613L212.423 338.82L188.568 349.162Z" fill="#3EC25A"/>
<path d="M103.192 389.818C103.192 389.818 109.141 387.566 110.895 391.684C110.895 391.684 109.087 399.026 107.054 400.653C105.482 401.913 100.264 402.429 99.238 399.742C99.238 399.742 98.5924 396.975 103.192 389.818Z" fill="#D4E5FF"/>
<path d="M156.825 390.782C156.825 390.782 167.891 395.328 179.068 386.373C179.068 386.373 171.39 396.721 161.054 393.28L156.825 390.782Z" fill="#0F95D8"/>
<path d="M53.8283 424.827C53.9005 425.55 53.7566 426.279 53.4148 426.921C53.0729 427.562 52.5485 428.088 51.9077 428.432C51.267 428.775 50.5388 428.921 49.8152 428.851C49.0915 428.78 48.405 428.497 47.8424 428.037C47.2799 427.576 46.8665 426.959 46.6546 426.264C46.4427 425.568 46.4419 424.825 46.6521 424.129C46.8623 423.433 47.2742 422.815 47.8357 422.354C48.3972 421.892 49.083 421.607 49.8065 421.535C50.7763 421.438 51.7448 421.731 52.499 422.348C53.2532 422.965 53.7313 423.857 53.8283 424.827Z" fill="white"/>
<path d="M224.837 389.246C224.909 389.969 224.765 390.697 224.423 391.339C224.081 391.98 223.557 392.506 222.916 392.849C222.276 393.193 221.548 393.338 220.824 393.268C220.101 393.197 219.414 392.914 218.852 392.454C218.29 391.993 217.876 391.376 217.664 390.681C217.453 389.986 217.452 389.243 217.662 388.547C217.872 387.852 218.284 387.234 218.845 386.772C219.406 386.31 220.092 386.025 220.815 385.953C221.296 385.905 221.781 385.952 222.243 386.092C222.705 386.231 223.135 386.46 223.508 386.766C223.882 387.072 224.191 387.448 224.419 387.874C224.647 388.299 224.789 388.765 224.837 389.246Z" fill="white"/>
<path d="M0.812272 140.601C4.85239 159.759 16.0796 165.649 25.1314 163.473C42.6364 159.264 86.1631 158.951 125.909 185.702C178.551 221.132 197.617 185.713 186.332 144.287C175.047 102.86 175.911 63.2153 200.845 45.8525C225.78 28.4897 204.313 -9.7468 149.07 15.846C113.37 32.3851 91.0806 23.1648 79.7786 14.572C69.1268 6.47234 57.2081 -2.13766 44.085 0.477398C28.1613 3.65134 19.9732 15.3558 37.3318 48.0315C61.9305 94.3363 -8.24349 97.657 0.812272 140.601Z" fill="#DEE9FF"/>
<path d="M105.64 136.152L107.124 137.912L106.678 151.656L46.4187 163.729C45.9741 163.819 45.5162 163.82 45.0713 163.732C44.6263 163.645 44.2029 163.47 43.8254 163.219C43.4478 162.968 43.1234 162.645 42.8707 162.268C42.6181 161.892 42.4421 161.469 42.3528 161.024L24.7258 73.0434C24.6358 72.5992 24.6345 72.1416 24.7219 71.6968C24.8093 71.2521 24.9838 70.8291 25.2352 70.452C25.4867 70.0749 25.8102 69.7513 26.1872 69.4996C26.5642 69.248 26.9872 69.0734 27.4319 68.9858L91.6171 56.1177L88.8079 65.9056C88.8079 65.9056 93.9446 75.5925 94.9387 77.1646L90.2154 97.5923L104.166 111.406L99.7419 129.123L105.64 136.152Z" fill="#3EC25A"/>
<path d="M96.4236 113.942L46.5909 123.928C46.4393 123.959 46.341 124.106 46.3714 124.258L47.8426 131.599C47.873 131.751 48.0206 131.849 48.1722 131.819L98.0048 121.832C98.1565 121.802 98.2548 121.654 98.2244 121.503L96.7532 114.161C96.7228 114.01 96.5752 113.911 96.4236 113.942Z" fill="white"/>
<path d="M99.742 129.124L105.64 136.152L52.643 146.769C52.1942 146.858 51.7285 146.766 51.3476 146.512C50.9666 146.259 50.7015 145.865 50.61 145.417L49.7105 140.913C49.665 140.691 49.6639 140.462 49.7073 140.239C49.7508 140.016 49.8379 139.804 49.9636 139.615C50.0893 139.426 50.2511 139.264 50.4398 139.138C50.6284 139.012 50.8402 138.924 51.0629 138.88L99.742 129.124Z" fill="white"/>
<path d="M207.469 57.4104L184.28 144.083C184.041 144.966 183.463 145.719 182.671 146.177C181.879 146.636 180.937 146.762 180.053 146.528L111.594 128.211L118.938 116.904L118.111 114.01L115.53 104.99L115.533 104.982L127.671 91.5174L120.93 71.7449L134.268 56.2085L133.666 42.037L141.093 36.0718L205.033 53.1774C205.917 53.4169 206.67 53.997 207.126 54.7906C207.583 55.5841 207.706 56.5262 207.469 57.4104Z" fill="#0F95D8"/>
<path d="M192.385 58.7319L179.928 55.3983C176.94 54.5988 173.87 56.3727 173.07 59.3603L169.737 71.818C168.937 74.8057 170.711 77.8758 173.699 78.6752L186.156 82.0088C189.144 82.8083 192.214 81.0344 193.014 78.0468L196.347 65.5891C197.147 62.6014 195.373 59.5313 192.385 58.7319Z" fill="white"/>
<path d="M129.605 110.539L128.423 114.977C128.304 115.419 128.015 115.795 127.619 116.024C127.223 116.254 126.752 116.317 126.309 116.2L118.111 114.01L115.53 104.99L128.39 108.428C128.609 108.485 128.815 108.586 128.995 108.724C129.174 108.861 129.325 109.033 129.438 109.23C129.551 109.426 129.624 109.643 129.653 109.868C129.682 110.092 129.665 110.32 129.605 110.539Z" fill="white"/>
<path d="M102.924 50.7442C102.598 50.3883 102.422 49.9197 102.434 49.4369C102.446 48.9541 102.645 48.4948 102.989 48.1556L115.685 35.1267C116.444 34.3484 117.676 34.3299 118.396 35.0862L119.4 36.1403C120.12 36.8963 120.038 38.1229 119.22 38.8382L105.52 50.8131C105.162 51.1381 104.692 51.3124 104.208 51.2996C103.725 51.2867 103.265 51.0878 102.924 50.7442Z" fill="#0F95D8"/>
<path d="M95.4261 46.2759C95.2848 46.2107 95.1576 46.1184 95.052 46.0041C94.9464 45.8899 94.8643 45.7559 94.8104 45.6099C94.7566 45.4639 94.732 45.3087 94.7381 45.1532C94.7442 44.9977 94.7809 44.845 94.8461 44.7037L99.603 33.8565C99.7364 33.5464 99.9874 33.3019 100.301 33.1767C100.614 33.0516 100.965 33.056 101.275 33.189L102.15 33.5849C102.3 33.654 102.433 33.7532 102.542 33.8764C102.65 33.9995 102.732 34.1439 102.783 34.3004C102.833 34.4569 102.85 34.6221 102.833 34.7855C102.816 34.949 102.766 35.1072 102.685 35.2502L97.0529 45.702C96.9035 45.9846 96.6531 46.2005 96.3516 46.3069C96.0502 46.4132 95.7197 46.4021 95.4261 46.2759Z" fill="#0F95D8"/>
<path d="M87.5301 48.0323C86.5321 48.2077 85.5743 47.3589 85.3587 46.1081L81.5301 23.9002C81.3015 22.5736 81.9931 21.3129 83.0515 21.1268L84.5269 20.8677C85.5853 20.6818 86.5849 21.6454 86.7249 22.9874L89.0782 45.4546C89.2112 46.7199 88.528 47.857 87.5301 48.0323Z" fill="#0F95D8"/>
<path d="M455.459 108.79C455.459 108.79 430.42 130.768 459.251 177.83C484.856 219.626 427.304 237.743 402.505 232.892C370.378 226.607 351.933 186.002 327.365 198.868C302.797 211.734 278.458 153.432 314.195 131.978C358.649 105.29 330.119 89.7818 334.112 70.2137C336.977 56.1699 377.756 34.4568 399.744 59.2249C418.246 80.0669 427.32 72.6105 435.777 69.8282C447.974 65.8152 474.597 86.6888 455.459 108.79Z" fill="#DEE9FF"/>
<path d="M384.565 133.557L376.362 167.205C376.057 168.453 376.001 169.749 376.198 171.018C376.394 172.287 376.839 173.506 377.506 174.603C378.173 175.701 379.05 176.656 380.087 177.414C381.123 178.173 382.299 178.72 383.547 179.024L424.346 188.97C425.395 200.488 434.927 201.339 438.687 201.734C438.724 201.736 438.761 201.726 438.792 201.705C438.822 201.684 438.845 201.653 438.857 201.618C438.868 201.583 438.867 201.545 438.855 201.51C438.843 201.475 438.819 201.445 438.788 201.425C436.087 199.779 435.281 195.266 435.101 191.592L438.13 192.33C439.378 192.635 440.673 192.691 441.943 192.494C443.212 192.298 444.43 191.854 445.528 191.186C446.625 190.519 447.58 189.642 448.339 188.605C449.097 187.569 449.644 186.393 449.948 185.145L458.151 151.496C458.456 150.248 458.512 148.953 458.315 147.684C458.119 146.414 457.674 145.196 457.007 144.098C456.34 143.001 455.463 142.046 454.426 141.287C453.39 140.529 452.214 139.982 450.966 139.678L396.383 126.371C395.136 126.067 393.84 126.011 392.571 126.207C391.301 126.403 390.083 126.848 388.985 127.515C387.888 128.183 386.933 129.06 386.174 130.096C385.416 131.133 384.869 132.309 384.565 133.557V133.557Z" fill="#0F95D8"/>
<path d="M452.241 150.156L429.427 144.595C429.277 144.558 429.126 144.65 429.089 144.8L427.919 149.601C427.882 149.751 427.974 149.903 428.124 149.939L450.938 155.501C451.088 155.538 451.24 155.446 451.277 155.295L452.447 150.495C452.484 150.345 452.391 150.193 452.241 150.156Z" fill="white"/>
<path d="M448.984 163.518L387.171 148.449C387.021 148.413 386.87 148.505 386.833 148.655L385.663 153.456C385.626 153.606 385.718 153.757 385.868 153.794L447.681 168.863C447.831 168.9 447.982 168.808 448.019 168.658L449.189 163.857C449.226 163.707 449.134 163.555 448.984 163.518Z" fill="#D4E5FF"/>
<path d="M445.726 176.881L383.914 161.811C383.764 161.775 383.612 161.867 383.576 162.017L382.405 166.818C382.369 166.968 382.461 167.12 382.611 167.156L444.423 182.226C444.573 182.262 444.725 182.17 444.761 182.02L445.932 177.219C445.968 177.069 445.876 176.917 445.726 176.881Z" fill="#D4E5FF"/>
<path d="M407.536 93.1922L420.95 136.27C421.448 137.868 421.626 139.547 421.475 141.214C421.323 142.88 420.845 144.5 420.067 145.982C419.289 147.463 418.227 148.777 416.941 149.848C415.655 150.919 414.171 151.726 412.574 152.223L360.343 168.487C359.92 183.547 347.597 185.433 342.74 186.253C342.692 186.259 342.643 186.249 342.601 186.225C342.559 186.2 342.526 186.162 342.509 186.117C342.491 186.072 342.488 186.022 342.502 185.975C342.516 185.929 342.545 185.888 342.584 185.86C345.96 183.499 346.64 177.566 346.574 172.774L342.696 173.982C341.099 174.479 339.419 174.658 337.753 174.506C336.086 174.355 334.466 173.876 332.985 173.098C331.503 172.321 330.19 171.259 329.119 169.973C328.048 168.687 327.241 167.203 326.744 165.606L313.33 122.528C312.832 120.93 312.653 119.25 312.805 117.584C312.956 115.917 313.435 114.297 314.213 112.816C314.991 111.334 316.053 110.021 317.338 108.95C318.624 107.879 320.108 107.072 321.706 106.575L391.583 84.8158C393.18 84.3179 394.86 84.1396 396.527 84.2911C398.193 84.4426 399.813 84.921 401.295 85.6988C402.776 86.4767 404.09 87.5389 405.161 88.8246C406.231 90.1103 407.038 91.5944 407.536 93.1922V93.1922Z" fill="#3EC25A"/>
<path d="M358.186 108.621L320.767 120.258C320.619 120.304 320.536 120.461 320.582 120.609L322.544 126.918C322.59 127.066 322.747 127.148 322.895 127.102L360.314 115.465C360.462 115.419 360.544 115.262 360.498 115.115L358.536 108.805C358.49 108.658 358.333 108.575 358.186 108.621Z" fill="white"/>
<path d="M405.407 112.619L326.113 137.312C325.965 137.358 325.883 137.515 325.929 137.663L327.893 143.971C327.939 144.118 328.096 144.201 328.244 144.155L407.538 119.462C407.686 119.416 407.768 119.259 407.722 119.111L405.758 112.804C405.712 112.656 405.555 112.573 405.407 112.619Z" fill="#D4E5FF"/>
<path d="M410.727 129.814L331.414 154.479C331.266 154.525 331.184 154.682 331.23 154.83L333.192 161.139C333.238 161.287 333.395 161.369 333.542 161.323L412.855 136.658C413.003 136.612 413.085 136.455 413.039 136.307L411.077 129.998C411.031 129.85 410.874 129.768 410.727 129.814Z" fill="#D4E5FF"/>
<path d="M357.326 489.322C364.732 507.395 376.807 511.157 385.298 507.395C401.718 500.12 444.372 491.992 488.179 511.099C546.199 536.405 558.544 498.224 540.027 459.604C521.51 420.983 515.233 381.926 536.58 360.408C557.927 338.89 529.992 305.229 480.384 340.268C448.325 362.912 424.798 357.87 412.164 351.468C400.257 345.435 387.014 339.128 374.608 344.053C359.553 350.028 353.622 362.984 376.526 391.928C408.984 432.943 340.723 448.812 357.326 489.322Z" fill="#DEE9FF"/>
<path d="M525.055 364.561C524.857 364.811 524.636 365.041 524.394 365.247L507.089 380.224L494.172 419.456L458.163 445.769C458.163 445.769 452.028 450.909 446.427 451.385C445.173 451.824 441.375 453.302 439.271 455.585C438.593 456.322 433.274 472.031 425.024 494.246C424.611 495.358 423.798 496.275 422.743 496.818C421.689 497.36 420.469 497.489 419.325 497.179C409.015 494.381 385.924 488.22 374.938 484.058C374.261 483.802 373.657 483.384 373.179 482.841C372.7 482.297 372.362 481.645 372.195 480.941C372.027 480.237 372.034 479.503 372.215 478.802C372.397 478.101 372.747 477.456 373.235 476.922C385.86 463.123 412.402 431.538 412.402 431.538L414.202 427.798C414.202 427.798 425.541 392.371 429.25 390.068C430.652 388.545 438.72 376.735 441.894 368.496C442.616 367.298 445.962 362.307 448.765 357.999C450.751 354.919 452.475 352.179 452.769 351.396C452.832 351.217 452.938 351.056 453.077 350.926C453.077 350.926 453.069 350.924 453.08 350.918C454.417 349.52 458.855 349.836 459.07 355.14C459.311 360.99 454.05 373.127 452.991 373.458C452.455 374.749 450.933 381.701 447.955 387.587C447.698 388.477 447.315 390.775 449.827 390.217C452.341 389.651 510.496 362.254 510.496 362.254L517.709 357.723C518.771 357.036 520.035 356.728 521.295 356.849C522.787 357.02 524.154 357.763 525.11 358.922C527.168 361.307 525.824 363.598 525.055 364.561Z" fill="#699CFF"/>
<path d="M451.705 358.961C450.666 359.057 449.605 358.558 448.765 357.998C450.751 354.918 452.475 352.178 452.769 351.396C452.832 351.216 452.938 351.055 453.078 350.926C455.471 353.784 451.992 358.668 451.705 358.961Z" fill="#D4E5FF"/>
<path d="M511.134 352.646L468.517 340.363C465.546 339.506 462.442 341.221 461.586 344.193L435.798 433.659C434.941 436.63 436.656 439.734 439.628 440.591L482.244 452.874C485.216 453.731 488.319 452.016 489.176 449.044L514.963 359.578C515.82 356.606 514.105 353.503 511.134 352.646Z" fill="#0F95D8"/>
<path d="M508.893 354.887L469.221 343.452C466.992 342.809 464.665 344.095 464.022 346.324L438.996 433.151C438.353 435.38 439.639 437.707 441.868 438.35L481.54 449.785C483.769 450.427 486.097 449.141 486.739 446.912L511.766 360.086C512.408 357.857 511.122 355.529 508.893 354.887Z" fill="#D4E5FF"/>
<path d="M510.924 384.157L503.771 384.101C500.233 384.073 497.343 386.918 497.315 390.456C497.287 393.994 500.132 396.885 503.67 396.912L510.823 396.969C514.36 396.997 517.251 394.151 517.279 390.613C517.307 387.076 514.461 384.185 510.924 384.157Z" fill="#699CFF"/>
<path d="M508.444 397.398L499.388 397.327C496.519 397.304 494.175 399.611 494.152 402.48C494.129 405.349 496.437 407.693 499.306 407.716L508.362 407.787C511.231 407.81 513.575 405.503 513.597 402.634C513.62 399.765 511.312 397.421 508.444 397.398Z" fill="#699CFF"/>
<path d="M502.405 408.766L497.054 408.723C494.885 408.706 493.114 410.45 493.097 412.619C493.079 414.787 494.824 416.559 496.992 416.576L502.343 416.618C504.511 416.636 506.283 414.892 506.3 412.723C506.317 410.554 504.573 408.783 502.405 408.766Z" fill="#699CFF"/>
<path d="M499.256 410.186L496.13 410.162C495.589 410.158 495.147 410.593 495.142 411.134L495.12 413.931C495.116 414.472 495.551 414.914 496.092 414.919L499.219 414.943C499.76 414.947 500.202 414.512 500.206 413.971L500.228 411.174C500.233 410.633 499.797 410.191 499.256 410.186Z" fill="#D4E5FF"/>
<path d="M502.426 399.792L498.924 399.764C497.764 399.755 496.816 400.688 496.807 401.847L496.794 403.541C496.785 404.701 497.718 405.649 498.877 405.658L502.38 405.686C503.539 405.695 504.487 404.762 504.496 403.602L504.51 401.908C504.519 400.748 503.586 399.801 502.426 399.792Z" fill="#D4E5FF"/>
<path d="M506.913 386.355L504.085 386.333C502.538 386.321 501.275 387.565 501.263 389.111L501.245 391.335C501.233 392.881 502.477 394.145 504.023 394.157L506.851 394.179C508.397 394.191 509.661 392.948 509.673 391.401L509.691 389.177C509.703 387.631 508.459 386.368 506.913 386.355Z" fill="#D4E5FF"/>
<path d="M401.289 413.068C401.087 413.691 401.075 414.36 401.253 414.99C401.431 415.62 401.793 416.183 402.291 416.607C402.789 417.032 403.402 417.3 404.052 417.376C404.703 417.452 405.361 417.334 405.944 417.036C406.527 416.739 407.009 416.275 407.328 415.703C407.647 415.131 407.79 414.478 407.738 413.825C407.686 413.173 407.442 412.55 407.036 412.036C406.63 411.523 406.081 411.141 405.458 410.939C404.623 410.669 403.715 410.741 402.933 411.14C402.151 411.54 401.56 412.233 401.289 413.068Z" fill="#3EC25A"/>
<path d="M399.793 404.993C398.597 405.6 397.533 406.438 396.662 407.459C395.792 408.48 395.133 409.664 394.724 410.941C394.565 411.43 394.608 411.962 394.841 412.419C395.075 412.877 395.481 413.223 395.97 413.381C396.459 413.54 396.99 413.497 397.448 413.264C397.906 413.03 398.252 412.624 398.41 412.135C398.666 411.343 399.076 410.61 399.616 409.977C400.155 409.344 400.815 408.823 401.556 408.444C402.297 408.066 403.105 407.837 403.935 407.771C404.764 407.705 405.598 407.803 406.39 408.06C406.879 408.218 407.41 408.176 407.868 407.942C408.326 407.708 408.672 407.302 408.83 406.813C408.988 406.325 408.946 405.793 408.712 405.335C408.479 404.878 408.073 404.532 407.584 404.373C406.309 403.956 404.964 403.796 403.626 403.903C402.289 404.009 400.986 404.38 399.793 404.993V404.993Z" fill="#3EC25A"/>
<path d="M396.891 399.311C394.947 400.297 393.218 401.659 391.804 403.318C390.39 404.977 389.319 406.9 388.653 408.976C388.573 409.218 388.542 409.474 388.562 409.728C388.581 409.983 388.65 410.231 388.766 410.459C388.881 410.686 389.041 410.889 389.235 411.054C389.429 411.22 389.654 411.346 389.896 411.425C390.139 411.503 390.395 411.533 390.649 411.513C390.904 411.492 391.152 411.421 391.379 411.305C391.606 411.188 391.807 411.028 391.972 410.833C392.137 410.638 392.262 410.413 392.339 410.17C392.854 408.581 393.676 407.109 394.759 405.838C395.843 404.567 397.166 403.522 398.653 402.762C400.14 402.003 401.763 401.544 403.427 401.411C405.092 401.279 406.767 401.475 408.355 401.99C408.844 402.148 409.376 402.106 409.833 401.872C410.291 401.639 410.637 401.233 410.795 400.744C410.954 400.255 410.911 399.723 410.677 399.266C410.444 398.808 410.038 398.462 409.549 398.304C407.477 397.626 405.292 397.367 403.119 397.54C400.947 397.712 398.83 398.315 396.891 399.311V399.311Z" fill="#3EC25A"/>
<path d="M411.52 392.221C408.649 391.291 405.622 390.935 402.613 391.175C399.604 391.414 396.671 392.244 393.983 393.617C391.295 394.99 388.903 396.879 386.945 399.176C384.987 401.474 383.501 404.134 382.571 407.006C382.492 407.248 382.462 407.503 382.483 407.757C382.503 408.01 382.573 408.257 382.688 408.484C382.804 408.711 382.963 408.912 383.157 409.077C383.351 409.242 383.575 409.367 383.817 409.446C384.059 409.524 384.314 409.554 384.568 409.534C384.821 409.514 385.068 409.444 385.295 409.328C385.522 409.212 385.723 409.053 385.888 408.86C386.053 408.666 386.179 408.442 386.257 408.2C387.03 405.812 388.266 403.6 389.894 401.69C391.522 399.78 393.51 398.21 395.745 397.068C397.98 395.927 400.418 395.237 402.92 395.038C405.422 394.838 407.938 395.134 410.326 395.908C410.815 396.066 411.347 396.024 411.804 395.79C412.262 395.556 412.608 395.15 412.766 394.661C412.925 394.173 412.882 393.641 412.649 393.183C412.415 392.725 412.009 392.379 411.52 392.221V392.221Z" fill="#3EC25A"/>
<path d="M535.38 321.848C530.835 319.073 527.103 320.492 525.992 322.31C525.19 323.624 525.931 324.908 526.84 325.463C528.658 326.573 529.501 323.528 532.935 325.626C534.618 326.654 535.513 328.217 534.567 329.766C533.456 331.584 530.934 331.477 529.247 331.741C527.756 331.987 525.634 332.586 523.866 335.482C522.796 337.233 522.959 338.025 524.339 338.869C525.989 339.876 526.778 339.341 527.169 338.701C528.238 336.95 528.889 335.96 531.625 335.643C532.966 335.491 537.226 334.949 539.159 331.783C541.092 328.618 539.69 324.48 535.38 321.848Z" fill="#3EC25A"/>
<path d="M522.954 341.212C522.614 341.004 522.235 340.865 521.841 340.804C521.447 340.742 521.045 340.758 520.657 340.852C520.269 340.946 519.903 341.115 519.581 341.35C519.259 341.585 518.986 341.881 518.778 342.222C518.57 342.562 518.431 342.94 518.369 343.334C518.307 343.728 518.324 344.131 518.417 344.519C518.511 344.907 518.68 345.272 518.915 345.595C519.15 345.917 519.447 346.19 519.787 346.398C520.475 346.818 521.301 346.947 522.084 346.758C522.868 346.569 523.544 346.076 523.964 345.388C524.383 344.701 524.513 343.874 524.324 343.091C524.134 342.308 523.642 341.632 522.954 341.212V341.212Z" fill="#3EC25A"/>
</svg>
