<svg width="414" height="600" viewBox="0 0 414 600" fill="none" xmlns="http://www.w3.org/2000/svg">
<rect x="167" y="259" width="144" height="144" rx="40" fill="#0CCC83" fill-opacity="0.7"/>
<path fill-rule="evenodd" clip-rule="evenodd" d="M260.535 340.33C259.365 339.748 253.616 336.932 252.543 336.544C251.472 336.155 250.692 335.961 249.913 337.126C249.133 338.291 246.892 340.913 246.209 341.69C245.527 342.466 244.845 342.564 243.676 341.981C242.506 341.398 238.738 340.169 234.271 336.204C230.795 333.118 228.448 329.307 227.765 328.141C227.083 326.976 227.693 326.346 228.279 325.766C228.804 325.245 229.448 324.407 230.033 323.727C230.617 323.047 230.812 322.562 231.202 321.785C231.592 321.009 231.397 320.329 231.104 319.746C230.812 319.164 228.473 313.435 227.499 311.105C226.55 308.835 225.585 309.143 224.868 309.107C224.186 309.073 223.406 309.066 222.626 309.066C221.847 309.066 220.58 309.357 219.508 310.522C218.436 311.687 215.415 314.503 215.415 320.232C215.415 325.96 219.605 331.495 220.19 332.272C220.775 333.048 228.436 344.804 240.168 349.845C242.958 351.045 245.136 351.761 246.834 352.297C249.636 353.183 252.185 353.058 254.2 352.758C256.447 352.424 261.119 349.943 262.094 347.224C263.068 344.505 263.068 342.175 262.776 341.69C262.484 341.204 261.704 340.913 260.535 340.33ZM239.197 369.325H239.181C232.2 369.323 225.354 367.457 219.381 363.929L217.961 363.09L203.238 366.934L207.167 352.647L206.242 351.183C202.348 345.019 200.292 337.894 200.295 330.579C200.303 309.233 217.754 291.867 239.212 291.867C249.603 291.871 259.37 295.903 266.714 303.221C274.059 310.539 278.102 320.266 278.098 330.61C278.089 351.958 260.638 369.325 239.197 369.325ZM272.304 297.66C263.468 288.856 251.716 284.005 239.196 284C213.399 284 192.403 304.894 192.393 330.576C192.389 338.786 194.544 346.799 198.64 353.863L192 378L216.811 371.523C223.647 375.234 231.344 377.189 239.177 377.193H239.197H239.197C264.992 377.193 285.989 356.296 286 330.613C286.005 318.167 281.141 306.464 272.304 297.66Z" fill="#F5FDFA"/>
<path fill-rule="evenodd" clip-rule="evenodd" d="M456.549 107.335C468.827 105.927 482.694 97.4073 492.157 105.328C501.677 113.296 499.336 128.739 496.541 140.811C494.324 150.386 486.31 156.612 478.806 162.989C472.158 168.64 465.144 173.233 456.549 174.802C445.541 176.811 433.522 179.266 424.308 172.937C413.876 165.771 406.23 153.408 407.062 140.811C407.867 128.633 418.159 119.508 428.292 112.654C436.536 107.077 446.649 108.471 456.549 107.335Z" fill="#0CCC83" fill-opacity="0.3"/>
<path fill-rule="evenodd" clip-rule="evenodd" d="M29.4227 0.248245C49.2019 -1.93123 69.6435 10.4836 78.73 27.9264C86.626 43.0837 71.6263 58.6959 68.6089 75.4712C65.1863 94.4993 77.208 120.05 60.3747 129.974C43.493 139.926 23.2441 123.121 7.50581 111.492C-4.03761 102.963 -9.66945 90.026 -12.5406 76.0956C-15.298 62.7172 -14.3855 49.4428 -7.75369 37.4561C1.14071 21.3798 10.9516 2.28358 29.4227 0.248245Z" fill="#0CCC83" fill-opacity="0.19"/>
<path fill-rule="evenodd" clip-rule="evenodd" d="M102.357 212.219C107.731 211.593 113.715 212.151 117.503 215.996C121.269 219.819 121.106 225.716 120.924 231.067C120.751 236.177 120.489 241.913 116.515 245.154C112.71 248.257 107.262 246.597 102.357 246.208C98.0487 245.867 93.8074 245.573 90.2871 243.078C85.989 240.03 80.9789 236.318 81.0001 231.067C81.0212 225.821 86.4395 222.632 90.3835 219.151C93.975 215.982 97.5895 212.773 102.357 212.219Z" fill="#87E1BE" fill-opacity="0.37"/>
<path fill-rule="evenodd" clip-rule="evenodd" d="M387.175 436.584C392.097 437.574 394.88 442.192 398.378 445.808C401.792 449.336 406.815 452.147 406.994 457.065C407.176 462.054 403.029 465.96 399.231 469.179C395.807 472.08 391.544 472.871 387.175 473.862C380.674 475.337 373.018 480.75 368.089 476.243C363.193 471.768 368.383 463.702 368.801 457.065C369.171 451.197 366.444 444.538 370.362 440.171C374.35 435.726 381.335 435.409 387.175 436.584Z" fill="#0CCC83" fill-opacity="0.27"/>
<path fill-rule="evenodd" clip-rule="evenodd" d="M-11.6828 405.815C16.4232 396.49 48.0073 389.982 73.7699 404.578C105.792 422.72 145.196 454.144 136.871 489.978C128.315 526.806 72.0197 520.764 41.5658 543.194C19.963 559.105 14.8403 595.31 -11.6828 599.39C-39.5752 603.681 -66.8121 584.688 -84.3062 562.557C-100.188 542.465 -104.567 514.772 -98.1718 489.978C-92.8818 469.468 -69.7232 461.924 -54.5392 447.148C-39.7526 432.759 -31.2699 412.314 -11.6828 405.815Z" fill="#70DAB1" fill-opacity="0.21"/>
</svg>
